HIERARCHY
ROOT Hips
{
	OFFSET 0.000000 0.000000 0.000000
	CHANNELS 6 Xposition Yposition Zposition Zrotation Yrotation Xrotation 
	JOINT LeftUpLeg_virtual
	{
		OFFSET 0.000000 0.000000 0.000000
		CHANNELS 3 Zrotation Yrotation Xrotation
		JOINT LeftUpLeg
		{
			OFFSET 10.205400 -3.823500 0.155100
			CHANNELS 3 Zrotation Yrotation Xrotation
			JOINT LeftLeg
			{
				OFFSET 0.708757 -12.982077 0.567790
				CHANNELS 3 Zrotation Yrotation Xrotation
				JOINT LeftFoot
				{
					OFFSET -0.708756 -10.717838 -2.184338
					CHANNELS 3 Zrotation Yrotation Xrotation
					JOINT LeftToeBase
					{
						OFFSET 0.108149 -7.191104 7.560241
						CHANNELS 3 Zrotation Yrotation Xrotation
						End Site
						{
							OFFSET 0.000000 0.000000 0.000000
						}
					}
				}
			}
		}
	}
	JOINT RightUpLeg_virtual
	{
		OFFSET 0.000000 0.000000 0.000000
		CHANNELS 3 Zrotation Yrotation Xrotation
		JOINT RightUpLeg
		{
			OFFSET -10.205400 -3.823500 0.005500
			CHANNELS 3 Zrotation Yrotation Xrotation
			JOINT RightLeg
			{
				OFFSET -0.708756 -12.982134 0.610632
				CHANNELS 3 Zrotation Yrotation Xrotation
				JOINT RightFoot
				{
					OFFSET 0.708754 -10.717769 -1.945823
					CHANNELS 3 Zrotation Yrotation Xrotation
					JOINT RightToeBase
					{
						OFFSET -0.108140 -7.191069 7.372968
						CHANNELS 3 Zrotation Yrotation Xrotation
						End Site
						{
							OFFSET 0.000000 0.000000 0.000000
						}
					}
				}
			}
		}
	}
	JOINT Spine_virtual
	{
		OFFSET 0.000000 0.000000 0.000000
		CHANNELS 3 Zrotation Yrotation Xrotation
		JOINT Spine
		{
			OFFSET 0.000000 6.876099 0.125700
			CHANNELS 3 Zrotation Yrotation Xrotation
			JOINT Spine1
			{
				OFFSET 0.000000 8.022060 0.146608
				CHANNELS 3 Zrotation Yrotation Xrotation
				JOINT Spine2
				{
					OFFSET 0.000000 9.168068 0.167552
					CHANNELS 3 Zrotation Yrotation Xrotation
					JOINT Neck_virtual
					{
						OFFSET 0.000000 0.000000 0.000000
						CHANNELS 3 Zrotation Yrotation Xrotation
						JOINT Neck
						{
							OFFSET 0.000000 10.314075 0.188496
							CHANNELS 3 Zrotation Yrotation Xrotation
							JOINT Head
							{
								OFFSET 0.000000 7.643700 -2.377400
								CHANNELS 3 Zrotation Yrotation Xrotation
								End Site
								{
									OFFSET 0.000000 0.000000 0.000000
								}
							}
						}
					}
					JOINT LeftShoulder_virtual
					{
						OFFSET 0.000000 0.000000 0.000000
						CHANNELS 3 Zrotation Yrotation Xrotation
						JOINT LeftShoulder
						{
							OFFSET 4.392200 8.824978 0.174984
							CHANNELS 3 Zrotation Yrotation Xrotation
							JOINT LeftArm
							{
								OFFSET 8.771219 -2.981674 -0.026999
								CHANNELS 3 Zrotation Yrotation Xrotation
								JOINT LeftForeArm
								{
									OFFSET 8.512804 0.000000 -0.000000
									CHANNELS 3 Zrotation Yrotation Xrotation
									JOINT LeftHand
									{
										OFFSET 18.484802 0.000000 -0.000000
										CHANNELS 3 Zrotation Yrotation Xrotation
										End Site
										{
											OFFSET 0.000000 0.000000 0.000000
										}
									}
								}
							}
						}
					}
					JOINT RightShoulder_virtual
					{
						OFFSET 0.000000 0.000000 0.000000
						CHANNELS 3 Zrotation Yrotation Xrotation
						JOINT RightShoulder
						{
							OFFSET -4.392200 8.824993 0.141379
							CHANNELS 3 Zrotation Yrotation Xrotation
							JOINT RightArm
							{
								OFFSET -8.771282 -2.981682 -0.094208
								CHANNELS 3 Zrotation Yrotation Xrotation
								JOINT RightForeArm
								{
									OFFSET -8.494598 0.000000 0.000000
									CHANNELS 3 Zrotation Yrotation Xrotation
									JOINT RightHand
									{
										OFFSET -18.483803 0.000000 0.000001
										CHANNELS 3 Zrotation Yrotation Xrotation
										End Site
										{
											OFFSET 0.000000 0.000000 0.000000
										}
									}
								}
							}
						}
					}
				}
			}
		}
	}
}
MOTION
Frames: 10
Frame Time: 0.033333
-4.335170 36.086243 -35.154999 179.785045 0.945469 179.929640 -1.484933 -2.696194 8.369873 -10.639794 -1.443339 -16.999311 17.230812 8.858718 24.242495 -2.657400 -0.305655 4.855076 0.000000 0.000000 0.000000 1.863131 -1.219298 8.650528 -0.273432 1.349720 -10.806010 -8.086681 0.538031 17.880040 10.387402 1.635124 4.985376 0.000000 0.000000 0.000000 1.492549 0.885528 -4.633950 -3.619081 0.818631 -5.182550 -0.046644 -3.562281 3.589674 0.050797 0.006173 0.007183 -0.278221 -1.962501 6.481529 -0.855991 -1.115954 12.380105 0.000000 0.000000 0.000000 1.419567 -1.151569 3.314067 -7.084107 5.029791 -6.408244 5.982650 9.222699 -38.971225 -1.952150 -40.212889 -3.754074 0.000000 0.000000 0.000000 -2.423666 -0.386386 2.824767 18.265613 -9.514717 -20.443885 5.912658 -7.234944 -41.438000 0.697628 27.296397 3.018283 0.000000 0.000000 0.000000 
-4.272429 36.092720 -35.223984 179.704995 1.207851 179.915201 -1.278248 -2.582204 8.322786 -10.749097 -1.627079 -17.119256 17.557969 9.228317 24.855492 -2.348044 -0.077687 3.973769 0.000000 0.000000 0.000000 2.043472 -1.191319 8.643101 -0.068248 0.876906 -10.611718 -8.009259 0.091160 17.758446 10.348461 1.572536 5.417922 0.000000 0.000000 0.000000 1.473233 0.872714 -4.629182 -3.705475 0.837777 -5.183846 -0.085186 -3.531023 3.593469 0.042492 0.022664 0.014246 -0.265099 -1.989049 6.483718 -0.788897 -1.094870 12.363354 0.000000 0.000000 0.000000 1.389642 -1.117044 3.331328 -7.074443 5.043696 -6.368106 5.961814 9.224229 -38.938813 -1.971129 -40.231440 -3.697263 0.000000 0.000000 0.000000 -2.420263 -0.367784 2.829875 18.369418 -9.486372 -20.492200 5.863043 -7.251032 -41.365292 0.741668 27.399084 3.029258 0.000000 0.000000 0.000000 
-4.184942 36.090164 -35.310963 179.732207 1.371396 179.988749 -1.253879 -2.647794 8.260587 -10.483464 -1.504604 -17.121664 17.563019 9.286782 25.346593 -2.491688 -0.249225 3.646426 0.000000 0.000000 0.000000 2.075979 -1.119904 8.560464 0.096750 0.831300 -10.483057 -7.986991 0.081051 17.895953 10.234422 1.525921 5.280596 0.000000 0.000000 0.000000 1.475667 0.885666 -4.701752 -3.755860 0.848278 -5.240598 -0.089864 -3.510802 3.583824 0.046591 0.042311 0.013596 -0.276671 -2.000792 6.487856 -0.772226 -1.120812 12.390417 0.000000 0.000000 0.000000 1.402662 -1.182760 3.317899 -7.065131 4.944181 -6.223162 5.894008 9.280061 -38.968155 -1.818835 -40.202978 -3.804216 0.000000 0.000000 0.000000 -2.428096 -0.380823 2.788347 18.439158 -9.557520 -20.428553 5.935794 -7.202891 -41.364848 0.699818 27.346252 2.889858 0.000000 0.000000 0.000000 
-4.091277 36.084126 -35.397045 179.758449 1.462815 -179.987110 -1.261473 -2.577134 8.233964 -10.242956 -1.452434 -17.174475 17.499424 8.996007 25.812303 -2.504350 -0.302321 3.356897 0.000000 0.000000 0.000000 2.095404 -1.077359 8.488393 0.268191 0.821154 -10.421216 -7.940454 0.125689 18.138394 10.033152 1.453681 5.068802 0.000000 0.000000 0.000000 1.492828 0.841971 -4.731119 -3.825541 0.816641 -5.325842 -0.100641 -3.506373 3.600709 0.014999 0.016343 0.013287 -0.268216 -1.832601 6.517233 -0.750403 -1.176867 12.413153 0.000000 0.000000 0.000000 1.441227 -1.123331 3.324597 -7.036101 4.885304 -6.237400 5.774041 9.338677 -38.890421 -1.834035 -40.258907 -3.709896 0.000000 0.000000 0.000000 -2.417333 -0.346950 2.850507 18.538274 -9.562057 -20.570527 5.971724 -7.130714 -41.328713 0.761876 27.156554 2.866990 0.000000 0.000000 0.000000 
-3.988100 36.084000 -35.462662 179.742302 1.526112 -179.880627 -1.330164 -2.542897 8.237813 -9.864995 -1.388366 -17.277197 17.353383 8.807209 26.321251 -2.556012 -0.373018 3.142270 0.000000 0.000000 0.000000 2.088470 -1.028771 8.425031 0.475574 0.760938 -10.331033 -7.888216 0.155538 18.198447 9.820796 1.376297 4.974588 0.000000 0.000000 0.000000 1.507772 0.825303 -4.805831 -3.884402 0.813284 -5.487726 -0.094680 -3.472683 3.579826 0.017481 0.020498 0.011338 -0.254886 -1.986489 6.566001 -0.643501 -1.186191 12.438420 0.000000 0.000000 0.000000 1.464377 -1.082668 3.374065 -7.070679 4.749942 -6.290615 5.587007 9.368932 -38.759302 -1.856432 -40.275098 -3.589448 0.000000 0.000000 0.000000 -2.398355 -0.260981 2.804826 18.558087 -9.726644 -20.655250 5.993661 -7.149063 -41.337852 0.859359 26.963230 2.842924 0.000000 0.000000 0.000000 
-3.873873 36.091240 -35.490116 179.751837 1.502614 -179.986618 -1.256529 -2.665114 8.371555 -9.644005 -1.331705 -17.326001 17.242585 8.743269 26.340389 -2.653847 -0.473153 3.329965 0.000000 0.000000 0.000000 2.108384 -1.099998 8.456513 0.734360 0.677492 -10.175208 -7.857081 0.197956 18.197683 9.606906 1.316098 4.979841 0.000000 0.000000 0.000000 1.520480 0.774446 -4.708973 -3.920238 0.821743 -5.565375 -0.076747 -3.397993 3.611400 0.043021 0.043996 0.029149 -0.287868 -1.918721 6.515641 -0.545905 -1.259695 12.409936 0.000000 0.000000 0.000000 1.434514 -1.048492 3.354664 -7.079477 4.594756 -6.218765 5.358412 9.301043 -38.752373 -1.789079 -40.305482 -3.594669 0.000000 0.000000 0.000000 -2.436869 -0.290383 2.770400 18.601317 -9.758344 -20.655810 5.997680 -7.110474 -41.388255 0.844417 26.704839 2.686714 0.000000 0.000000 0.000000 
-3.742823 36.106808 -35.482441 179.654015 1.379795 -179.966592 -1.398070 -2.724011 8.410280 -9.120797 -1.511174 -17.613893 17.208663 8.809308 26.808402 -2.847249 -0.640114 3.288237 0.000000 0.000000 0.000000 2.033486 -1.138806 8.446026 0.971531 0.443991 -10.110275 -7.741817 0.158807 18.041685 9.361197 1.247336 5.055798 0.000000 0.000000 0.000000 1.465018 0.794416 -4.650755 -3.968737 0.798175 -5.660895 -0.091305 -3.365763 3.605014 0.017518 0.031428 0.002055 -0.221960 -2.019943 6.502672 -0.396562 -1.341175 12.316319 0.000000 0.000000 0.000000 1.521077 -1.027516 3.367204 -7.118087 4.403353 -6.075751 5.198546 9.236830 -38.811624 -1.644108 -40.283851 -3.684576 0.000000 0.000000 0.000000 -2.346953 -0.272638 2.793082 18.665947 -9.773653 -20.698449 6.027543 -7.106843 -41.555445 0.920856 26.469831 2.627501 0.000000 0.000000 0.000000 
-3.602225 36.117603 -35.438190 179.755580 1.272052 -179.979378 -1.324295 -2.712220 8.442668 -8.696689 -1.733569 -17.956467 17.138376 8.666346 27.150864 -3.010735 -0.685000 3.412697 0.000000 0.000000 0.000000 2.132002 -1.132395 8.423674 1.305277 0.210507 -10.072710 -7.639347 0.117719 17.887333 9.096506 1.178819 5.197695 0.000000 0.000000 0.000000 1.531583 0.819314 -4.545855 -3.948459 0.793766 -5.688521 -0.096636 -3.305590 3.624902 0.012328 0.029358 0.003331 -0.281615 -1.839614 6.455176 -0.216362 -1.478068 12.232298 0.000000 0.000000 0.000000 1.472356 -0.947887 3.374231 -7.026301 4.244056 -6.069728 4.904223 9.042957 -39.014775 -1.521205 -40.267418 -3.774705 0.000000 0.000000 0.000000 -2.421012 -0.209018 2.767827 18.758797 -9.804481 -20.684060 6.032577 -7.125148 -41.800481 0.926196 26.291474 2.511224 0.000000 0.000000 0.000000 
-3.449088 36.129986 -35.343864 179.721948 1.166211 -179.988667 -1.384279 -2.660503 8.442661 -8.128645 -1.977590 -18.383174 17.026057 8.624478 27.543064 -3.260548 -0.734133 3.563026 0.000000 0.000000 0.000000 2.122553 -1.082324 8.371166 1.638298 -0.144791 -10.130928 -7.564592 0.093960 17.797057 8.832323 1.140596 5.320740 0.000000 0.000000 0.000000 1.484573 0.854323 -4.409016 -3.971363 0.757641 -5.641097 -0.084784 -3.278656 3.662955 0.058048 0.010931 0.003471 -0.316636 -1.757324 6.436245 -0.027730 -1.647847 12.160446 0.000000 0.000000 0.000000 1.453604 -0.877357 3.345391 -7.024481 4.097090 -5.930242 4.566118 8.899258 -39.311741 -1.335507 -40.198976 -3.918859 0.000000 0.000000 0.000000 -2.449287 -0.146962 2.765411 18.849727 -9.783950 -20.798971 6.093584 -7.188232 -42.094053 1.021050 26.175044 2.457047 0.000000 0.000000 0.000000 
-3.294701 36.133812 -35.209450 179.764719 1.117503 -179.929531 -1.260286 -2.600171 8.378837 -7.802392 -1.909938 -18.809854 16.783662 8.268406 27.605436 -3.482224 -0.598403 3.972715 0.000000 0.000000 0.000000 2.200554 -0.929790 8.259092 1.999342 -0.526655 -10.336229 -7.491570 0.139566 17.804413 8.538911 1.116910 5.427344 0.000000 0.000000 0.000000 1.495162 0.925937 -4.292351 -4.009111 0.756372 -5.543380 -0.101902 -3.207690 3.729978 0.042838 0.030971 0.037950 -0.304109 -1.706902 6.409708 0.211680 -1.796841 12.078633 0.000000 0.000000 0.000000 1.415905 -0.806475 3.360410 -6.952870 3.944922 -6.089298 4.200606 8.745688 -39.401241 -1.344346 -40.181344 -3.864386 0.000000 0.000000 0.000000 -2.463671 -0.094745 2.764426 19.003243 -9.801013 -20.781657 6.170857 -7.269640 -42.370498 1.089211 26.134185 2.390305 0.000000 0.000000 0.000000 
